# xmcd
#
# Track frame offsets: 
#        150
#        12613
#        24305
#        36973
#        49544
#        61904
#        74092
#        87107
#        100863
#        110872
#        122644
#        132609
#        144365
#        157282
#        170107
#        181308
#        194934
#        208415
#        219740
#        233224
#
# Disc length: 3264 seconds
#
# Revision: 3
# Processed by: cddbd v1.5.2PL0 Copyright (c) Steve Scherf et al.
# Submitted via: ExactAudioCopy v0.99pb4
#
DISCID=410cbe14
DTITLE=Champion Jack Dupree - Blues For Everybody
DYEAR=1900
DGENRE=Blues
TTITLE0=Heart Breaking Woman
TTITLE1=Watchin' My Stuff
TTITLE2=Ain't No Meat On De Bone
TTITLE3=The Blues Got Me Rockin'
TTITLE4=Tongue Tied Blues
TTITLE5=Please Tell Me Baby
TTITLE6=Harelip Blues
TTITLE7=Two Below Zero
TTITLE8=Let The Doorbell Ring
TTITLE9=Blues For Everybody
TTITLE10=That's My Pa
TTITLE11=She Cooks Me Cabbage
TTITLE12=Failing Health Blues
TTITLE13=Stumbling Block
TTITLE14=Mail Order Woman
TTITLE15=Silent Partner
TTITLE16=House Rent Party
TTITLE17=Rub A Little Boogie
TTITLE18=Walkin' The Blues
TTITLE19=Daybreak Rock
EXTD=
EXTT0=
EXTT1=
EXTT2=
EXTT3=
EXTT4=
EXTT5=
EXTT6=
EXTT7=
EXTT8=
EXTT9=
EXTT10=
EXTT11=
EXTT12=
EXTT13=
EXTT14=
EXTT15=
EXTT16=
EXTT17=
EXTT18=
EXTT19=
PLAYORDER=
